<svg width="310" height="84" fill="none" xmlns="http://www.w3.org/2000/svg">
  <path d="M101.576 56l5.436-25.704h15.156l-1.188 5.58h-8.28l-1.008 4.896h7.668l-1.224 5.616h-7.704L108.452 56h-6.876zm41.16.36c-3.264 0-5.724-.9-7.38-2.7-1.656-1.824-2.484-4.224-2.484-7.2 0-1.992.276-3.96.828-5.904a18.138 18.138 0 012.556-5.364 12.931 12.931 0 014.356-3.852c1.752-.96 3.816-1.44 6.192-1.44 3.168 0 5.568.9 7.2 2.7 1.632 1.8 2.448 4.2 2.448 7.2a21.9 21.9 0 01-.828 5.94 16.925 16.925 0 01-2.484 5.328 12.695 12.695 0 01-4.284 3.852c-1.704.96-3.744 1.44-6.12 1.44zm.612-5.688c1.152 0 2.196-.492 3.132-1.476.936-.984 1.668-2.292 2.196-3.924.552-1.632.828-3.432.828-5.4 0-1.344-.288-2.388-.864-3.132-.552-.768-1.356-1.152-2.412-1.152-.96 0-1.836.324-2.628.972-.792.624-1.476 1.464-2.052 2.52-.552 1.032-.984 2.196-1.296 3.492a17.39 17.39 0 00-.432 3.852c0 2.832 1.176 4.248 3.528 4.248zM167.695 56l5.436-25.704h6.804c2.952 0 5.208.588 6.768 1.764 1.584 1.176 2.376 2.94 2.376 5.292 0 1.56-.264 2.868-.792 3.924-.504 1.056-1.14 1.896-1.908 2.52-.768.624-1.524 1.104-2.268 1.44L188.755 56h-7.488l-3.42-9.36h-1.296l-1.98 9.36h-6.876zm10.872-14.58a4.07 4.07 0 002.484-.828c.768-.552 1.152-1.488 1.152-2.808 0-.624-.18-1.152-.54-1.584-.336-.432-.948-.648-1.836-.648h-.936l-1.224 5.868h.9zM204.213 56l4.176-20.016h-5.58l1.224-5.688h18.072l-1.26 5.688h-5.58L211.089 56h-6.876zm23.967 0l.828-3.924 3.384-1.404 3.168-14.904-2.808-1.512.828-3.96h13.212l-.828 3.96-3.528 1.512-3.168 14.904 2.844 1.404-.828 3.924H228.18zm26.741 0l5.436-25.704h15.156l-1.188 5.58h-8.28l-1.008 4.896h7.668l-1.224 5.616h-7.704L261.797 56h-6.876zm34.392 0l2.124-9.972-4.176-15.732h7.092l1.584 9.54 5.472-9.54h7.668l-10.764 15.732L296.189 56h-6.876zM80.665 11.397L44.84.21a4.657 4.657 0 00-2.762 0L6.25 11.397A4.635 4.635 0 003 15.817c0 49.539 25.031 61.377 38.476 67.736a4.612 4.612 0 003.963 0c13.448-6.359 38.477-18.2 38.477-67.736a4.635 4.635 0 00-3.251-4.42zm-32.387 36.81a2.166 2.166 0 01-2.165 2.168H40.73a2.166 2.166 0 01-2.166-2.167v-6.632c0-1.194.969-2.167 2.166-2.167h5.383c1.194 0 2.165.969 2.165 2.167v6.632zm22.504-3.798H57.299V33.032h1.86a2.167 2.167 0 002.167-2.164V20.484a2.165 2.165 0 00-2.167-2.163h-5.246a2.165 2.165 0 00-2.165 2.163v3.25h-3.472v-3.25a2.164 2.164 0 00-2.165-2.163h-5.245a2.165 2.165 0 00-2.166 2.163v3.25h-3.606v-3.25a2.165 2.165 0 00-2.165-2.163h-5.243a2.165 2.165 0 00-2.166 2.163v10.384c0 1.193.969 2.164 2.166 2.164h1.858v11.377H16.132c-2.167-6.661-3.573-14.952-3.826-25.195l31.153-9.73 31.15 9.73c-.25 10.245-1.658 18.534-3.827 25.195z" fill="#091156"/>
</svg>